<svg width="300" height="300" viewBox="0 0 300 300" fill="none" xmlns="http://www.w3.org/2000/svg">
<mask id="mask0_1_7" style="mask-type:alpha" maskUnits="userSpaceOnUse" x="0" y="0" width="300" height="300">
<rect width="300" height="300" fill="#D9D9D9"/>
</mask>
<g mask="url(#mask0_1_7)">
<path d="M25 87.5V25H87.5V50H50V87.5H25ZM25 275V212.5H50V250H87.5V275H25ZM212.5 275V250H250V212.5H275V275H212.5ZM250 87.5V50H212.5V25H275V87.5H250ZM218.75 218.75H237.5V237.5H218.75V218.75ZM218.75 181.25H237.5V200H218.75V181.25ZM200 200H218.75V218.75H200V200ZM181.25 218.75H200V237.5H181.25V218.75ZM162.5 200H181.25V218.75H162.5V200ZM200 162.5H218.75V181.25H200V162.5ZM181.25 181.25H200V200H181.25V181.25ZM162.5 162.5H181.25V181.25H162.5V162.5ZM237.5 62.5V137.5H162.5V62.5H237.5ZM137.5 162.5V237.5H62.5V162.5H137.5ZM137.5 62.5V137.5H62.5V62.5H137.5ZM118.75 218.75V181.25H81.25V218.75H118.75ZM118.75 118.75V81.25H81.25V118.75H118.75ZM218.75 118.75V81.25H181.25V118.75H218.75Z" fill="#6020FF"/>
</g>
</svg>
