<svg width="300" height="300" viewBox="0 0 300 300" fill="none" xmlns="http://www.w3.org/2000/svg">
<g clip-path="url(#clip0_6_664)">
<rect width="300" height="300" rx="150" fill="white"/>
<mask id="mask0_6_664" style="mask-type:alpha" maskUnits="userSpaceOnUse" x="0" y="0" width="300" height="300">
<rect width="300" height="300" fill="#D9D9D9"/>
</mask>
<g mask="url(#mask0_6_664)">
<path d="M103.333 208.333C106.639 208.333 109.41 207.215 111.646 204.979C113.882 202.743 115 199.972 115 196.667C115 193.361 113.882 190.59 111.646 188.354C109.41 186.118 106.639 185 103.333 185C100.028 185 97.2569 186.118 95.0208 188.354C92.7847 190.59 91.6667 193.361 91.6667 196.667C91.6667 199.972 92.7847 202.743 95.0208 204.979C97.2569 207.215 100.028 208.333 103.333 208.333ZM103.333 161.667C106.639 161.667 109.41 160.549 111.646 158.313C113.882 156.076 115 153.306 115 150C115 146.694 113.882 143.924 111.646 141.688C109.41 139.451 106.639 138.333 103.333 138.333C100.028 138.333 97.2569 139.451 95.0208 141.688C92.7847 143.924 91.6667 146.694 91.6667 150C91.6667 153.306 92.7847 156.076 95.0208 158.313C97.2569 160.549 100.028 161.667 103.333 161.667ZM103.333 115C106.639 115 109.41 113.882 111.646 111.646C113.882 109.41 115 106.639 115 103.333C115 100.028 113.882 97.2569 111.646 95.0208C109.41 92.7847 106.639 91.6667 103.333 91.6667C100.028 91.6667 97.2569 92.7847 95.0208 95.0208C92.7847 97.2569 91.6667 100.028 91.6667 103.333C91.6667 106.639 92.7847 109.41 95.0208 111.646C97.2569 113.882 100.028 115 103.333 115ZM138.333 208.333H208.333V185H138.333V208.333ZM138.333 161.667H208.333V138.333H138.333V161.667ZM138.333 115H208.333V91.6667H138.333V115ZM68.3333 255C61.9167 255 56.4236 252.715 51.8542 248.146C47.2847 243.576 45 238.083 45 231.667V68.3333C45 61.9167 47.2847 56.4236 51.8542 51.8542C56.4236 47.2847 61.9167 45 68.3333 45H231.667C238.083 45 243.576 47.2847 248.146 51.8542C252.715 56.4236 255 61.9167 255 68.3333V231.667C255 238.083 252.715 243.576 248.146 248.146C243.576 252.715 238.083 255 231.667 255H68.3333ZM68.3333 231.667H231.667V68.3333H68.3333V231.667Z" fill="#39B163"/>
</g>
</g>
<defs>
<clipPath id="clip0_6_664">
<rect width="300" height="300" rx="150" fill="white"/>
</clipPath>
</defs>
</svg>
